<svg width="28" height="28" fill="none" xmlns="http://www.w3.org/2000/svg"><g clip-path="url(#prefix__clip0_4309_129333)"><path d="M19.658 7.992l1.68 1.68-5.693 5.693-3.838-3.838a1.162 1.162 0 00-1.645 0l-7 7.011a1.162 1.162 0 000 1.645c.455.455 1.19.455 1.645 0L10.978 14l3.839 3.838c.455.455 1.19.455 1.645 0l6.521-6.51 1.68 1.68c.362.362.992.105.992-.408V7.583A.561.561 0 0025.083 7h-5.005c-.525 0-.781.63-.42.992z" fill="#C4170C"/></g><defs><clipPath id="prefix__clip0_4309_129333"><rect width="28" height="28" rx="6" fill="#fff"/></clipPath></defs></svg>