<svg xmlns="http://www.w3.org/2000/svg" width="100" height="100" viewBox="0 0 100 100" xmlns:xlink="http://www.w3.org/1999/xlink"><defs><path id="4tn-path-1" d="M17.3 47C7.8 47 0 39 0 29.6c0-1.7.3-3.4.7-5 2-7 8.3-12 15.8-12.4C20.3 4.8 28 0 36.2 0 46.7 0 55.8 7.5 58 17.7c7.3 1 13 7 13 14.8 0 8-6.4 14.5-14.5 14.5H17.3z"/></defs><g id="4nPage-1" fill="none" fill-rule="evenodd"><g id="4n.-Noite-chuvosa-Copy"><g id="NOITE-CHUVOSA"><path id="Oval-52-Copy-2" fill="#FFD275" fill-opacity=".1" stroke="#FFD275" stroke-width="3" d="M36.6 14c7.4 6.7 8 18 1.3 25.4-6.8 7.4-18 8-25.5 1.4C10.5 39 11 39 11 39c-1.6-2.2-.5-4.2 2.2-4.4 0 0 1.8.3 6.2-1.2 2.6-.8 5-2.4 6.8-4.4 2-2.2 3.5-5 4-7.8 1-4.5.4-5.8.4-5.8-.2-2.8 1.7-4 4-2.7 0 0 0-.3 2 1.4z"/><g id="nuvem"><g id="Fill" transform="translate(21 23)"><use fill="#F5F6F6" xlink:href="#4n-path-1"/><path stroke="#BBC0C4" stroke-width="3" d="M17.3 45.5h39.2c7.2 0 13-5.8 13-13 0-6.8-5-12.4-11.8-13.3h-1l-.3-1.2C54.4 8.5 46 1.5 36.2 1.5 28.5 1.5 21.4 6 17.8 13l-.4.7h-1C10 14 4.2 18.7 2.3 25c-.5 1.5-.7 3-.7 4.6 0 8.7 7 16 15.8 16z"/></g></g></g><g id="Group" stroke="#60B0ED" stroke-width="2.4" stroke-linecap="round"><path id="Line-3" d="M38 78l-2.5 6.5"/><path id="Line-3-Copy-4" d="M53 75l-3.5 9.5"/><path id="Line-3-Copy-5" d="M67 78l-3.5 9.5"/><path id="Line-3-Copy-6" d="M82 75l-3 8"/><path id="Line-3-Copy" d="M46 74l-4.5 13.5"/><path id="Line-3-Copy-2" d="M61 74l-5 15"/><path id="Line-3-Copy-3" d="M75 75l-5 15"/></g><path id="BG" fill="#D8D8D8" fill-opacity="0" d="M0 0h100v100H0z"/></g></g></svg>
