<svg xmlns="http://www.w3.org/2000/svg" width="100" height="100" viewBox="0 0 100 100" xmlns:xlink="http://www.w3.org/1999/xlink"><defs><path id="4t-path-1" d="M17.3 47C7.8 47 0 39 0 29.6c0-1.7.3-3.4.7-5 2-7 8.3-12 15.8-12.4C20.3 4.8 28 0 36.2 0 46.7 0 55.8 7.5 58 17.7c7.3 1 13 7 13 14.8 0 8-6.4 14.5-14.5 14.5H17.3z"/></defs><g id="4rPage-1" fill="none" fill-rule="evenodd"><g id="4r.-Sol-com-muitas-nuvens-e-chuva--Copy"><g id="sol" stroke="#FFAC00" stroke-width="3" transform="translate(7 7)"><circle id="Oval-1" cx="28" cy="28" r="16" fill="#FFAD00" fill-opacity=".1"/><path id="Line" d="M28.5 6V0" stroke-linecap="round"/><path id="Line-Copy" d="M44 12l4.5-4.5" stroke-linecap="round"/><path id="Line-Copy-2" d="M12 12L7.2 7.2" stroke-linecap="round"/><path id="Line-2" d="M7.5 28.5h-7" stroke-linecap="round"/><path id="Line-2-Copy" d="M12.5 44.5l-5 5" stroke-linecap="round"/></g><g id="SOL-COM-MUITAS-NUVENS-E-CHUVA"><g id="nuvem"><g id="Fill" transform="translate(24 22)"><use fill="#F5F6F6" xlink:href="#4r-path-1"/><path stroke="#BBC0C4" stroke-width="3" d="M17.3 45.5h39.2c7.2 0 13-5.8 13-13 0-6.8-5-12.4-11.8-13.3h-1l-.3-1.2C54.4 8.5 46 1.5 36.2 1.5 28.5 1.5 21.4 6 17.8 13l-.4.7h-1C10 14 4.2 18.7 2.3 25c-.5 1.5-.7 3-.7 4.6 0 8.7 7 16 15.8 16z"/></g></g><g id="mini-nuvem" fill="#F5F6F6" stroke="#BBC0C4" stroke-width="3"><path id="Fill" d="M57.5 52.6c-5.8 0-10.5 4.8-10.5 10.7C47 69 51.5 73.8 57 74h28.2c4.3-.2 7.8-4 7.8-8.3 0-4.6-3.7-8.4-8.2-8.4h-.5c-1-5.6-5.5-10-11.2-10.3h-.7c-4.5 0-8.5 2.6-10.6 6.4-1.3-.5-2.7-.8-4.2-.8z"/></g></g><g id="Group" stroke="#60B0ED" stroke-width="2.4" stroke-linecap="round"><path id="Line-3" d="M38 82l-2.5 6.5"/><path id="Line-3-Copy-4" d="M53 79l-3.5 9.5"/><path id="Line-3-Copy-5" d="M67 82l-3.5 9.5"/><path id="Line-3-Copy-6" d="M82 79l-3 8"/><path id="Line-3-Copy" d="M46 78l-4.5 13.5"/><path id="Line-3-Copy-2" d="M61 78l-5 15"/><path id="Line-3-Copy-3" d="M75 79l-5 15"/></g><path id="BG" fill="#D8D8D8" fill-opacity="0" d="M0 0h100v100H0z"/></g></g></svg>
