<svg width="22" height="22" fill="none" xmlns="http://www.w3.org/2000/svg"><g clip-path="url(#prefix__clip0_10225_2495)"><path d="M11 0C4.925 0 0 4.925 0 11c0 4.66 2.9 8.64 6.991 10.243-.096-.87-.183-2.206.039-3.155.2-.858 1.29-5.468 1.29-5.468s-.33-.66-.33-1.633c0-1.53.887-2.671 1.99-2.671.94 0 1.392.705 1.392 1.55 0 .943-.6 2.354-.911 3.661-.26 1.096.55 1.989 1.629 1.989 1.955 0 3.458-2.062 3.458-5.038 0-2.633-1.892-4.475-4.595-4.475-3.13 0-4.966 2.348-4.966 4.774 0 .945.364 1.96.818 2.511a.33.33 0 01.076.315c-.083.348-.268 1.095-.305 1.248-.047.202-.16.244-.367.147-1.374-.64-2.233-2.649-2.233-4.262 0-3.47 2.52-6.657 7.268-6.657 3.816 0 6.781 2.719 6.781 6.354 0 3.79-2.39 6.842-5.708 6.842-1.114 0-2.162-.58-2.52-1.264 0 0-.552 2.1-.686 2.616-.249.955-.919 2.153-1.368 2.884C8.773 21.828 9.866 22 11 22c6.075 0 11-4.925 11-11S17.075 0 11 0z" fill="#fff"/></g><defs><clipPath id="prefix__clip0_10225_2495"><rect width="22" height="22" rx="11" fill="#fff"/></clipPath></defs></svg>