<svg xmlns="http://www.w3.org/2000/svg" width="20" height="16" fill="none"><path d="M6.033 1c.563 0 .774.318.634.953L5.488 6.635c.95.262 1.724.804 2.322 1.627.598.822.897 1.775.897 2.86 0 1.383-.44 2.542-1.32 3.476C6.545 15.533 5.559 16 4.434 16c-1.232 0-2.287-.467-3.167-1.402C.422 13.664 0 12.505 0 11.121c0-.71.106-1.401.317-2.074.21-.71.457-1.402.738-2.075.317-.673.528-1.14.634-1.402l2.234-3.897c.176-.449.492-.673.95-.673h1.16zm5.26 10.121c0-.71.105-1.401.317-2.074.21-.71.457-1.402.738-2.075.317-.673.528-1.14.633-1.402l2.235-3.897c.175-.449.492-.673.95-.673h1.16c.563 0 .774.318.633.953l-1.178 4.682c.95.262 1.724.804 2.322 1.627.598.822.897 1.775.897 2.86 0 1.383-.44 2.542-1.32 3.476-.844.935-1.829 1.402-2.954 1.402-1.232 0-2.287-.467-3.167-1.402-.844-.934-1.266-2.093-1.266-3.477z" fill="#C4170C"/></svg>