<svg width="22" height="22" fill="none" xmlns="http://www.w3.org/2000/svg"><rect width="22" height="22" rx="11" fill="#30A3E6"/><path fill-rule="evenodd" clip-rule="evenodd" d="M11 22c6.075 0 11-4.925 11-11S17.075 0 11 0 0 4.925 0 11s4.925 11 11 11zM3.762 10.735c3.757-1.552 6.263-2.576 7.517-3.07C14.86 6.254 15.603 6.008 16.087 6c.108-.002.346.024.5.143.103.084.17.202.185.33.026.16.033.32.021.481-.194 1.934-1.034 6.623-1.46 8.788-.181.916-.538 1.222-.882 1.253-.593.05-1.073-.273-1.607-.635-.14-.095-.284-.191-.435-.285a96.441 96.441 0 01-1.509-.96l-.037-.024c-.408-.263-.82-.529-1.33-.848-1.096-.685-.639-1.104-.026-1.662.098-.091.202-.186.303-.285.045-.044.265-.239.576-.513 1-.88 2.927-2.58 2.976-2.776.008-.033.015-.153-.06-.216-.075-.064-.187-.042-.268-.025-.113.025-1.926 1.16-5.436 3.408-.515.334-.981.497-1.399.49-.46-.01-1.345-.247-2.003-.45l-.204-.062-.079-.024c-.668-.198-1.16-.345-1.11-.718.028-.22.348-.445.959-.675z" fill="#fff"/></svg>