<svg width="104" height="41" xmlns="http://www.w3.org/2000/svg" xmlns:xlink="http://www.w3.org/1999/xlink"><defs><path id="a" d="M.647.113h10.285V5.99H.647z"/></defs><g fill="none" fill-rule="evenodd"><path d="M39.256 26.814c-.098.021-.149.031-.195.046-.567.165-1.134.335-1.706.49-1.016.273-2.046.51-3.05.819-1.444.448-2.35 1.433-2.69 2.912-.398 1.721-.403 3.452-.109 5.189.14.819.407 1.592.922 2.262.47.608 1.072 1.01 1.845 1.031 1.387.041 2.603-.413 3.551-1.454.99-1.082 1.422-2.391 1.422-3.839.005-2.381 0-4.756 0-7.137.01-.088.01-.185.01-.319m16.8-3.541v15.898c0 .412 0 .412.407.412 1.046 0 2.097.005 3.143-.005.243-.005.315.078.31.309-.016.742.076.634-.624.634-5.112 0-10.219.005-15.33 0-.81 0-1.614-.088-2.382-.351-1.144-.391-1.927-1.128-2.195-2.339-.015-.067-.067-.123-.098-.185-.057.041-.139.062-.175.118-1.046 1.783-2.659 2.726-4.648 3.009-2.139.31-4.2 0-6.086-1.097-1.814-1.056-2.803-2.67-3.015-4.761-.098-.969-.05-1.923.29-2.84.448-1.216 1.282-2.118 2.36-2.809 1.39-.891 2.936-1.38 4.534-1.751 1.82-.423 3.633-.856 5.452-1.289.242-.057.474-.154.701-.252.355-.15.556-.402.546-.814-.026-1.098 0-2.201-.067-3.293-.062-1.036-.335-2.015-1.103-2.783-.556-.557-1.257-.824-2.015-.938-.757-.113-1.52-.129-2.278.026-.973.201-1.442.757-1.416 1.746.02.825.087 1.645.108 2.469a3.47 3.47 0 0 1-.103.917c-.176.712-.619 1.227-1.309 1.48-1.03.381-2.057.386-3.03-.165-.928-.521-1.36-1.521-1.237-2.577.196-1.747 1.211-2.881 2.695-3.669 1.087-.582 2.257-.887 3.473-1.061 1.366-.202 2.742-.191 4.112-.088 1.32.097 2.623.309 3.86.809 1.938.783 3.102 2.226 3.602 4.23.31 1.232.377 2.495.377 3.757.005 3.401 0 6.802.005 10.203 0 .48.015.964.098 1.438.216 1.257.932 1.865 2.262 1.912.984.036 1.974.01 2.963.015.17 0 .232-.072.226-.232-.005-.066 0-.139 0-.206V8.412c0-.438 0-.438-.437-.438-1.016 0-2.026-.005-3.04.005-.228 0-.299-.072-.299-.299 0-.623-.006-.623.628-.623 1.587 0 3.18.015 4.767-.006 1.2-.015 2.401-.077 3.602-.123.325-.011.376.026.376.35-.01 5.328-.01 10.662-.01 15.995M7.101 7.051h6.776c.34 0 .34 0 .34.34-.005.655.072.577-.577.577-.953.005-1.906 0-2.859 0-.388 0-.429.057-.295.423.995 2.711 1.995 5.421 2.99 8.132 1.844 5.024 3.694 10.053 5.54 15.078.004.015.01.031.02.046l.154.247c.062-.082.145-.154.181-.247l6.616-17.779c.608-1.638 1.222-3.277 1.824-4.915.052-.145.103-.295.13-.444.066-.34-.078-.525-.434-.536-.35-.01-.705-.005-1.056-.005-.67 0-1.34-.005-2.01.005-.2 0-.273-.06-.273-.268-.01-.654-.015-.654.65-.654h7.523c.371 0 .371 0 .371.361 0 .628.056.556-.546.556h-2.268c-.56 0-.793.166-.994.706-.5 1.34-.995 2.685-1.49 4.025-3.39 9.162-6.78 18.32-10.167 27.481-.097.27-.23.371-.52.356-.809-.036-.649.124-.948-.639C11.723 29.417 7.673 18.93 3.622 8.443c-.18-.47-.19-.475-.69-.475-.886 0-1.768-.005-2.654.005-.22 0-.278-.077-.278-.288 0-.634-.01-.634.634-.634h6.467zM76.184 29.164c-.005-1.97-.077-3.932-.423-5.87-.2-1.108-.484-2.195-1.035-3.184-.443-.8-1.057-1.412-1.943-1.711a6.216 6.216 0 0 0-3.174-.212c-1.412.258-2.366 1.067-2.933 2.36a9.79 9.79 0 0 0-.463 1.253c-.562 1.89-.717 3.839-.763 5.798-.052 2.092-.025 4.189.253 6.27.15 1.15.37 2.284.82 3.36.468 1.124 1.148 2.052 2.364 2.453a6.216 6.216 0 0 0 2.82.253c1.565-.206 2.68-1.02 3.271-2.478.304-.748.552-1.536.722-2.325.422-1.963.49-3.963.484-5.967m6.173.216c-.005 1.866-.38 3.839-1.324 5.679-1.325 2.587-3.395 4.313-6.153 5.215-1.643.54-3.334.685-5.055.577-1.68-.103-3.287-.494-4.782-1.278-2.37-1.242-4.035-3.123-4.942-5.632-1.128-3.133-1.185-6.313-.092-9.462 1.246-3.586 3.756-5.92 7.43-6.895 2.896-.767 5.772-.608 8.53.634 2.786 1.258 4.621 3.402 5.641 6.26.541 1.532.737 3.109.747 4.902" fill="#02656F"/><path d="M91.643 22.268c.047-.067.11-.124.14-.195.561-1.325 1.355-2.484 2.484-3.39 1.474-1.192 3.164-1.665 5.044-1.485.702.067 1.366.242 1.97.613.973.608 1.452 1.525 1.617 2.628a5.537 5.537 0 0 1-.047 2c-.242 1.087-.875 1.778-1.994 1.983-.623.114-1.246.15-1.865-.005-1.098-.278-1.798-1.144-1.896-2.267-.073-.866.061-1.71.231-2.55.037-.186.068-.372.078-.562.016-.335-.165-.52-.506-.557-.514-.057-.963.13-1.38.397-.696.453-1.21 1.082-1.737 1.705-1.21 1.443-1.757 3.143-1.953 4.973-.088.825-.134 1.66-.139 2.49-.016 3.7-.005 7.404-.005 11.104 0 .418 0 .418.412.418 1.056 0 2.113.005 3.17-.006.21 0 .283.057.283.273-.006.65.005.65-.645.65H82.641c-.376 0-.376 0-.376-.382.005-.623-.083-.535.551-.54.99-.005 1.974-.005 2.963.005.232 0 .315-.072.315-.31-.005-6.838-.005-13.67 0-20.509 0-.258-.093-.325-.33-.325-1.046.011-2.098-.005-3.144.011-.242 0-.314-.078-.304-.315.021-.71-.087-.608.624-.608 2.102-.005 4.21.005 6.312-.01.66-.005 1.32-.067 1.98-.098.314-.016.34.02.34.33v4.2c0 .098.01.195.015.293.005.026.031.036.056.041" fill="#02656F"/><g transform="translate(65 -.113)"><mask id="b" fill="#fff"><use xlink:href="#a"/></mask><path fill="#02656F" mask="url(#b)" d="M.647.113V3.97h4.729l1.699 2.02L10.932.113z"/></g><path fill="#02656F" d="M65.647 5.877h3.375l2.64 3.834h1.309l2.18-3.834h.781v5.005H65.647z"/><path d="M84.69 3.677c0-1.299-.701-2.22-1.88-2.22h-1.966v4.442h1.967c1.177 0 1.878-.923 1.878-2.222zm-5.212 7.98V.26h3.469c2.084 0 3.144 1.571 3.144 3.417 0 1.846-1.076 3.417-3.144 3.417h-2.103v4.563H79.48zM92.754 3.677c0-1.299-.701-2.22-1.88-2.22h-1.965v4.442h1.965c1.179 0 1.88-.923 1.88-2.222zm-.017 7.98l-2.188-4.563h-1.64v4.563h-1.367V.26h3.486c1.829 0 3.127 1.315 3.127 3.4 0 2.034-1.145 3.024-2.273 3.23l2.393 4.767h-1.538zM102.544 5.967c0-2.631-1.025-4.682-2.922-4.682-1.88 0-2.905 2.05-2.905 4.682 0 2.597 1.026 4.682 2.905 4.682 1.897 0 2.922-2.085 2.922-4.682m-7.23 0c0-3.298 1.54-5.895 4.308-5.895s4.323 2.597 4.323 5.895c0 3.298-1.555 5.895-4.323 5.895-2.768 0-4.307-2.597-4.307-5.895" fill="#737272"/></g></svg>