<svg xmlns="http://www.w3.org/2000/svg" width="2002.1" height="684.6"><g fill="#888" fill-rule="evenodd" clip-rule="evenodd"><path d="M1469 0l13 19.7c-9.5 1.5-12.2-8-19-10.6-6.5 3-9.2 13-19 11l14-20h11zm-379.2 342.8v308.5c0 8 0 8 8 8h61c4.6-.2 6 1.4 6 6-.4 14.3 1.4 12.2-12.2 12.2H855c-15.6 0-31.2-1.7-46-6.8-22.3-7.6-37.5-22-42.7-45.4-.3-1.3-1.3-2.4-2-3.6-1 .8-2.6 1.2-3.3 2.3-20.3 34.6-51.6 53-90.2 58.4-41.5 6-81.5 0-118-21.3-35.3-20-54.5-51-58.6-92-2-19-1-37 5.6-55 8.7-23 25-41 45.8-54 27-17 57-26 88-34 35.3-8 70.5-16 105.8-25 4.7-1 9.2-3 13.6-5 7-3 10.8-8 10.6-16-.5-21 0-42-1.3-64-1.2-20-6.5-39-21.4-54-11-10-25-16-40-18s-30-2-44 1c-19 4-28 15-28 34 0 16 1 32 2 48 0 6-1 12-2 18-4 14-12 24-26 29-20 8-40 8-59-3-18-10-27-29-24-50 3-34 23-56 52-71 21-11 44-17 67-20 26-4 53-3 80-1 25 2 51 6 75 16 37 15 60 43 70 82 6 24 7 49 7 73v198c0 10 0 19 2 28 4 25 18 36 44 37 19 1 38 0 57 1 3 0 4-1.4 4-4.5V55c0-8.7 0-8.7-9-8.7h-59c-5 0-6-1.2-6-5.6 0-12 0-12 12-12 31 0 62 .2 92-.2 23 0 46.7-1.3 70-2.2 6-.2 7 .5 7 6.8v311zm-326 68.7c-2 .4-3 .6-3.8 1-11 3-22 6.4-33 9.4-19.8 5-39.8 9-59.3 15-28 8-45.6 28-52.2 56-7.7 33-7.8 67-2 100 2.6 16 7.8 31 17.8 44 9 11 20.8 19 35.8 20 27 0 51-8 69-29 20-21 28-47 28-75V411zM139.8 28h131.5c6.6 0 6.6 0 6.6 6.6-1 12.7 1 11.2-12 11.2h-55c-8 0-9 1-6 8.2l58 157.8 108 292.6v1l3 4.7c1-1 3-3 3-4l128-345 36-96c1-3 2-5 2-8 1-6-2-10-9-10-7-1-13 0-20 0h-39c-4 0-5-1-5-5 0-13-1-13 12-13h146c7 0 7 0 7 7 0 12 1 11-11 11h-44c-11 0-15.8 4-19 14-10 26-20 52-29 78L336 671c-2 5-4.3 7-10 6.8-15.6-.7-12.5 2.4-18.3-12.4L72.2 55c-3.4-9-3.6-9.2-13.3-9.2H7c-4 .2-5-1.3-5-5.4C2 28 1.8 28 14.3 28h125.5zm1460.4 433.3c0 36.2-7.4 74.5-25.7 110.2-25.7 50.2-66 83.7-119.4 101.2-31 10.5-64 13.3-98 11.2-32-2-63-10-92-25-46-24-78-61-96-110-22-61-23-123-1-184 24-70 73-115 144-134 56-15 112-12 166 12s90 66 110 121c11 30 14 60 15 95zm-119.8-4.2c0-38-1.5-76-8.2-113-4-21-9.4-42-20-62-8.7-15-20.6-27-37.8-33-20-7-40.6-8-61.6-4-27.4 5-46 21-57 46-3.4 8-6.5 16-9 25-10.8 37-13.8 74-14.8 112-1 41 0 82 5 122 3 23 7.5 45 16 66 9 21 22.5 39 46 47 18 6 36 8 54.8 5 30.4-4 52-20 63.5-48 6-14 10.8-30 14-45 8.3-38 9.6-77 9.5-116z"/><path d="M1780.4 323.3c1-1.3 2-2.4 2.7-3.8 11-25.7 27-48.2 49-65.8 29-23 62-32.3 98-28.8 14 1 27 4 38 11 19 12 29 29 32 51 2 13 2 26-1 39-4 21-17 34-38 38-12 2-24 3-36 0-21-6-35-23-36-44-1-17 1-34 5-50 1-4 2-7 2-11 0-7-3-10-10-11-10-1-18 2-26 7-14 9-24 21-34 33-23.3 28-34 61-38 97-1.4 16-2.3 32-2.4 48-.5 72 0 143 0 215 0 8 0 8 8 8h61c4 0 5.7 1 5.7 5 0 12 0 12-12.6 12h-238c-7 0-7 0-7-7 0-12-2-10 10.3-10.6h58c4.4 0 6-1.4 6-6V255c0-5-1.8-6.3-6.4-6.3-20 .2-40.7 0-61 .2-4.7 0-6-2-6-7 .5-14-1.6-12 12.2-12 40.7 0 81.6 0 122.4-1 13 0 25.5-2 38.3-2 6 0 6 0 6 6v82c0 2 0 4 .5 5 0 0 .5 0 1 1zM1579 40.7l-5 16.3c-5.3 17.2-10.7 34.3-15.8 51.5-1 3.7-2.6 5-6.5 5-9.4-.3-9.4 0-12.3-9.3l-18.2-59c-.5-1.6-1-3-2.7-4.3v65c0 6 0 6-6.7 6h-5.3V25c6.6 0 13-.2 19.5 0 1.2 0 2.7 2.5 3.2 4l18.6 60.7 2 6 2.3-6.3c6-20 13-40 18-60.3 1-3 3-4 6-4 6 1 11 0 17 0v88h-12V41c0-.2 0-.3-1-.3zm-219.7-15c4.4 0 8.6-.3 12.7.2 1.5 0 3.2 2 4 3l28 55c1 1 1.8 3 2.6 4l1.4-1V26h12v87.4c-4 0-8 .4-11.8-.2-1.4-.2-3-2.3-3.8-4-9.8-19-19.5-38.2-29.2-57.3-.7-2-1.5-3-3.4-5v66h-12.5V25zm138 44.3c-1.7 8.2-2.6 16.8-5.4 24.6-5 13.5-17 20.7-30 20.3-14-1-25-9-29-23-5-16-5-32 0-48 4-13 15-21 28-21s24 7 29 21c2 8 3 16 5 25zm-14.2.4c-1-8.4-2-16.2-4-23.6-2-8.2-8-12-16-12-7 0-13 4-15 12-4 15-4 30.5 1 45.6 3 7.7 8 11.4 15 11.6 8 .2 13-4 16-10.7 3-7.5 4-15.4 5-23zm231-1.6c2-8.5 3-17.3 6-25.5 5-12.3 16-19.3 28-19.3 13 0 24 7.8 29 20 6 16.7 7 33.7 1 50.5-5 14-16 21.6-30 21-14-.6-24-9-28-23-1-2.8-1-5.6-2-8.4l-1-15h-1zm54 1.2c-1-8-2-16-4-23.4-1-6.8-6-11.4-14-11.5-7 0-13 4-15 11-5 16-5 32 0 48 3 7 8 11 16 11s13-4 15-10c3-7 3-15 5-23zm-418 0c-2 8.5-2 17.4-5 25.5-5 13-16 20-29 19.6-13 0-24-8-28-21-5-16-5-33 1-50 5-12 16-20 29-20s24 8 28 20c3 8 4 17 6 26zm-14 .3c-1-8-2-15.7-4-23.2-2-8-8-12-16-12-7 1-12 5-15 13-4 15-4 31 0 46 3 8 8 12 16 12 7 0 13-3 15-11 3-7 3-15 5-22zm-124-44v10c-2 0-3 .4-5 .4h-31c-1 0-4 1.6-4 2.4v24h32v10h-32v30h41v10h-55V26h54zm54 58.2l12 3c0 16.2-17 30-33 27.4-12-2-21-9-25-20-6-17-6-35 1-52 6-16 22-23 38-19 11 3 19 13 20 25l-12 3c-1-4-2-8-4-11-5-11-19-12-26-1-2 4-4 10-5 15 0 10 1 21 2 31 1 3 3 7 5 9 7 9 20 7 26-3 2-3 3-7 5-11zm432 0l12 3c-4 20.7-19 31-38 26.5-10-2.6-17-9.6-20-19.5-5-17-6-34 1-50.8 6-14.3 19-21.3 34-19 13 2 23 12 24 26-4 1-8 1.8-12 3l-3-10c-2-5-6-8.2-11-8.8-6-1-11 1-14 7-2 3-4 7-4.2 11 0 11 0 23 1 34 .6 5 3.7 10 8.7 13 8 5 17.4 2 21.8-7 2-4 3-8 5-12zm-82-52.7h-11c-1-4-1-6 4-6 12 .3 23 .2 34 .2v5.5h-12v76h12c0 2 0 3.7 1 5.7h-39v-5.6h12v-76z"/></g></svg>
