<svg xmlns="http://www.w3.org/2000/svg" xmlns:xlink="http://www.w3.org/1999/xlink" width="40" height="40" viewBox="4 4 40 40"><defs><path id="a" d="M33 24c0 .3-.1.5-.3.6L21 31.9c-.1.1-.2.1-.3.1-.4 0-.7-.3-.7-.7V16.7c0-.4.3-.7.7-.7.1 0 .2 0 .4.1 0 0 8.7 5.4 11.6 7.3.1.1.3.3.3.6"/></defs><clipPath id="b"><use xlink:href="#a" overflow="visible"/></clipPath><g clip-path="url(#b)"><defs><path id="c" d="M-233.3-903.6h910.7v3646.7h-910.7z"/></defs><clipPath id="d"><use xlink:href="#c" overflow="visible"/></clipPath><path clip-path="url(#d)" fill="#FFF" d="M16.7 12.7h19.6v22.7H16.7z"/></g><g><path fill="#FFF" d="M24 6c9.9 0 18 8.1 18 18s-8.1 18-18 18S6 33.9 6 24 14.1 6 24 6m0-2C13 4 4 13 4 24s9 20 20 20 20-9 20-20S35 4 24 4z"/></g></svg>
